<svg width="143" height="48" viewBox="0 0 143 48" fill="none" xmlns="http://www.w3.org/2000/svg">
<path d="M7.332 27.366C6.82933 27.366 6.35267 27.4613 5.902 27.652C5.45133 27.8253 5.044 28.094 4.68 28.458C4.33333 28.822 4.056 29.2813 3.848 29.836C3.64 30.3733 3.536 31.006 3.536 31.734C3.536 32.4447 3.64 33.0773 3.848 33.632C4.056 34.1693 4.33333 34.6287 4.68 35.01C5.02667 35.374 5.434 35.6513 5.902 35.842C6.37 36.0327 6.85533 36.128 7.358 36.128C7.94733 36.128 8.44133 36.0413 8.84 35.868C9.256 35.6947 9.594 35.478 9.854 35.218C10.1313 34.958 10.348 34.6807 10.504 34.386C10.66 34.074 10.7727 33.7967 10.842 33.554L13 34.49C12.844 34.9407 12.6187 35.4 12.324 35.868C12.0293 36.3187 11.648 36.7347 11.18 37.116C10.712 37.4973 10.1573 37.8007 9.516 38.026C8.892 38.2687 8.17267 38.39 7.358 38.39C6.43933 38.39 5.59 38.2253 4.81 37.896C4.04733 37.5493 3.38867 37.0813 2.834 36.492C2.27933 35.8853 1.83733 35.1833 1.508 34.386C1.196 33.5713 1.04 32.6873 1.04 31.734C1.04 30.7633 1.196 29.8707 1.508 29.056C1.83733 28.2413 2.27933 27.548 2.834 26.976C3.406 26.3867 4.07333 25.9273 4.836 25.598C5.616 25.2687 6.448 25.104 7.332 25.104C8.164 25.104 8.892 25.2253 9.516 25.468C10.1573 25.6933 10.7033 25.9967 11.154 26.378C11.622 26.7593 11.9947 27.1927 12.272 27.678C12.5493 28.146 12.7573 28.614 12.896 29.082L10.686 30.018C10.5993 29.706 10.478 29.394 10.322 29.082C10.166 28.77 9.94933 28.4927 9.672 28.25C9.412 27.99 9.09133 27.782 8.71 27.626C8.32867 27.4527 7.86933 27.366 7.332 27.366ZM22.6562 36.206C23.1762 36.206 23.6702 36.1107 24.1382 35.92C24.6062 35.7293 25.0222 35.4433 25.3862 35.062C25.7502 34.6807 26.0362 34.2127 26.2442 33.658C26.4522 33.1033 26.5562 32.462 26.5562 31.734C26.5562 31.006 26.4522 30.3733 26.2442 29.836C26.0362 29.2813 25.7502 28.8133 25.3862 28.432C25.0222 28.0507 24.6062 27.7647 24.1382 27.574C23.6702 27.3833 23.1762 27.288 22.6562 27.288C22.1362 27.288 21.6422 27.3833 21.1742 27.574C20.7062 27.7647 20.2902 28.0507 19.9262 28.432C19.5622 28.8133 19.2762 29.2813 19.0682 29.836C18.8602 30.3733 18.7562 31.006 18.7562 31.734C18.7562 32.462 18.8602 33.1033 19.0682 33.658C19.2762 34.2127 19.5622 34.6807 19.9262 35.062C20.2902 35.4433 20.7062 35.7293 21.1742 35.92C21.6422 36.1107 22.1362 36.206 22.6562 36.206ZM22.6562 25.104C23.5922 25.104 24.4502 25.2773 25.2302 25.624C26.0102 25.9533 26.6862 26.4127 27.2582 27.002C27.8302 27.5913 28.2722 28.2933 28.5842 29.108C28.8962 29.9053 29.0522 30.7807 29.0522 31.734C29.0522 32.6873 28.8962 33.5713 28.5842 34.386C28.2722 35.2007 27.8302 35.9027 27.2582 36.492C26.6862 37.0813 26.0102 37.5493 25.2302 37.896C24.4502 38.2253 23.5922 38.39 22.6562 38.39C21.7202 38.39 20.8622 38.2253 20.0822 37.896C19.3022 37.5493 18.6262 37.0813 18.0542 36.492C17.4822 35.9027 17.0402 35.2007 16.7282 34.386C16.4162 33.5713 16.2602 32.6873 16.2602 31.734C16.2602 30.7807 16.4162 29.9053 16.7282 29.108C17.0402 28.2933 17.4822 27.5913 18.0542 27.002C18.6262 26.4127 19.3022 25.9533 20.0822 25.624C20.8622 25.2773 21.7202 25.104 22.6562 25.104ZM33.7391 38V25.494H36.1571V38H33.7391ZM33.1931 20.762C33.1931 20.2593 33.3577 19.8433 33.6871 19.514C34.0337 19.1673 34.4497 18.994 34.9351 18.994C35.4377 18.994 35.8537 19.1673 36.1831 19.514C36.5297 19.8433 36.7031 20.2593 36.7031 20.762C36.7031 21.2473 36.5297 21.6633 36.1831 22.01C35.8537 22.3393 35.4377 22.504 34.9351 22.504C34.4497 22.504 34.0337 22.3393 33.6871 22.01C33.3577 21.6633 33.1931 21.2473 33.1931 20.762ZM44.3192 38H41.8752V25.494H44.2672V27.288C44.7179 26.508 45.2899 25.9533 45.9832 25.624C46.6766 25.2947 47.3872 25.13 48.1152 25.13C48.8606 25.13 49.5106 25.26 50.0652 25.52C50.6372 25.7627 51.1052 26.1093 51.4692 26.56C51.8506 26.9933 52.1279 27.5133 52.3012 28.12C52.4919 28.7267 52.5872 29.3767 52.5872 30.07V38H50.1432V30.486C50.1432 30.0527 50.0912 29.6453 49.9872 29.264C49.9006 28.8827 49.7359 28.5533 49.4932 28.276C49.2679 27.9813 48.9646 27.756 48.5832 27.6C48.2192 27.4267 47.7686 27.34 47.2312 27.34C46.7459 27.34 46.3212 27.4353 45.9572 27.626C45.5932 27.7993 45.2899 28.042 45.0472 28.354C44.8046 28.666 44.6226 29.03 44.5012 29.446C44.3799 29.862 44.3192 30.304 44.3192 30.772V38Z" fill="#404051"/>
<path d="M62.2468 28.406V38H58.2948V28.406H56.2408V25.078H58.2948V23.96C58.2948 23.2147 58.3988 22.5387 58.6068 21.932C58.8322 21.3253 59.1528 20.8053 59.5688 20.372C60.0022 19.9213 60.5222 19.5747 61.1288 19.332C61.7528 19.0893 62.4548 18.968 63.2348 18.968C63.6335 18.968 63.9975 18.994 64.3268 19.046C64.6562 19.098 64.9162 19.1673 65.1068 19.254V22.478C65.0028 22.4433 64.8555 22.4173 64.6648 22.4C64.4915 22.3653 64.2488 22.348 63.9368 22.348C63.7635 22.348 63.5728 22.374 63.3648 22.426C63.1742 22.4607 62.9922 22.5473 62.8188 22.686C62.6628 22.8073 62.5242 22.9807 62.4028 23.206C62.2988 23.4313 62.2468 23.726 62.2468 24.09V25.078H65.0548V28.406H62.2468ZM77.0228 38C76.9881 37.8787 76.9621 37.6793 76.9448 37.402C76.9274 37.1073 76.9188 36.8733 76.9188 36.7C76.5721 37.2547 76.0694 37.662 75.4108 37.922C74.7694 38.1647 74.1194 38.286 73.4608 38.286C72.6808 38.286 71.9788 38.156 71.3548 37.896C70.7481 37.6187 70.2368 37.2547 69.8208 36.804C69.4048 36.336 69.0841 35.7987 68.8588 35.192C68.6508 34.5853 68.5468 33.9353 68.5468 33.242V25.078H72.4988V32.41C72.4988 33.034 72.6634 33.5627 72.9928 33.996C73.3394 34.4293 73.8681 34.646 74.5788 34.646C75.2374 34.646 75.7574 34.4467 76.1388 34.048C76.5374 33.632 76.7368 33.0947 76.7368 32.436V25.078H80.6888V35.686C80.6888 36.2753 80.7061 36.7867 80.7408 37.22C80.7754 37.636 80.8014 37.896 80.8188 38H77.0228ZM89.677 38H85.725V25.078H89.547V26.56C89.7204 26.248 89.9457 25.9793 90.223 25.754C90.5004 25.5287 90.795 25.3467 91.107 25.208C91.4364 25.052 91.7744 24.9393 92.121 24.87C92.485 24.7833 92.8317 24.74 93.161 24.74C93.9757 24.74 94.6777 24.8787 95.267 25.156C95.8564 25.416 96.3417 25.78 96.723 26.248C97.1217 26.716 97.4077 27.262 97.581 27.886C97.7717 28.51 97.867 29.1773 97.867 29.888V38H93.915V30.564C93.915 29.9227 93.7417 29.394 93.395 28.978C93.0657 28.5447 92.537 28.328 91.809 28.328C91.1504 28.328 90.6304 28.5447 90.249 28.978C89.8677 29.394 89.677 29.9313 89.677 30.59V38ZM115.462 35.686C115.462 36.2753 115.471 36.778 115.488 37.194C115.523 37.5927 115.549 37.8613 115.566 38H111.77C111.753 37.9133 111.727 37.7487 111.692 37.506C111.675 37.2633 111.666 37.012 111.666 36.752C111.371 37.2027 110.912 37.5753 110.288 37.87C109.681 38.1473 108.988 38.286 108.208 38.286C107.289 38.286 106.44 38.1213 105.66 37.792C104.88 37.4453 104.204 36.9773 103.632 36.388C103.06 35.7813 102.609 35.062 102.28 34.23C101.968 33.398 101.812 32.488 101.812 31.5C101.812 30.5467 101.968 29.6627 102.28 28.848C102.592 28.016 103.025 27.2967 103.58 26.69C104.135 26.0833 104.793 25.6153 105.556 25.286C106.319 24.9393 107.159 24.766 108.078 24.766C108.633 24.766 109.109 24.818 109.508 24.922C109.907 25.0087 110.245 25.1213 110.522 25.26C110.799 25.3813 111.016 25.52 111.172 25.676C111.345 25.832 111.475 25.9707 111.562 26.092V19.176H115.462V35.686ZM105.79 31.526C105.79 32.0633 105.868 32.5313 106.024 32.93C106.18 33.3287 106.388 33.6667 106.648 33.944C106.925 34.204 107.237 34.4033 107.584 34.542C107.948 34.6807 108.321 34.75 108.702 34.75C109.083 34.75 109.447 34.6807 109.794 34.542C110.158 34.4033 110.47 34.204 110.73 33.944C111.007 33.6667 111.224 33.3287 111.38 32.93C111.536 32.5313 111.614 32.0633 111.614 31.526C111.614 30.9887 111.536 30.5207 111.38 30.122C111.224 29.7233 111.007 29.394 110.73 29.134C110.47 28.8567 110.158 28.6573 109.794 28.536C109.447 28.3973 109.083 28.328 108.702 28.328C108.321 28.328 107.948 28.3973 107.584 28.536C107.237 28.6573 106.925 28.8567 106.648 29.134C106.388 29.394 106.18 29.7233 106.024 30.122C105.868 30.5207 105.79 30.9887 105.79 31.526ZM128.799 28.978C128.574 28.926 128.357 28.8913 128.149 28.874C127.941 28.8567 127.742 28.848 127.551 28.848C127.153 28.848 126.771 28.9087 126.407 29.03C126.043 29.1513 125.723 29.3507 125.445 29.628C125.168 29.9053 124.943 30.2693 124.769 30.72C124.613 31.1707 124.535 31.7167 124.535 32.358V38H120.583V25.078H124.405V26.82C124.579 26.456 124.795 26.1527 125.055 25.91C125.333 25.6673 125.627 25.4767 125.939 25.338C126.251 25.1993 126.563 25.104 126.875 25.052C127.205 24.9827 127.499 24.948 127.759 24.948C128.158 24.948 128.505 24.9913 128.799 25.078V28.978Z" fill="#1F1F1F"/>
<path d="M132.318 34.428C132.318 33.896 132.419 33.402 132.622 32.946C132.825 32.4647 133.103 32.0467 133.458 31.692C133.813 31.3373 134.218 31.0587 134.674 30.856C135.155 30.6533 135.662 30.552 136.194 30.552C136.726 30.552 137.22 30.6533 137.676 30.856C138.157 31.0587 138.575 31.3373 138.93 31.692C139.31 32.0467 139.601 32.4647 139.804 32.946C140.007 33.402 140.108 33.896 140.108 34.428C140.108 34.96 140.007 35.4667 139.804 35.948C139.601 36.404 139.31 36.8093 138.93 37.164C138.575 37.5187 138.157 37.7973 137.676 38C137.22 38.228 136.726 38.342 136.194 38.342C135.662 38.342 135.155 38.228 134.674 38C134.218 37.7973 133.813 37.5187 133.458 37.164C133.103 36.8093 132.825 36.404 132.622 35.948C132.419 35.4667 132.318 34.96 132.318 34.428Z" fill="#6D66FB"/>
</svg>
